<svg width="1476" height="774" viewBox="0 0 1476 774" fill="none" xmlns="http://www.w3.org/2000/svg">
<path d="M1476 73.3542V214.361C1476 214.361 1243.92 295.697 990.836 214.361C849.214 168.848 703.678 174.271 602.953 187.876C515.113 199.741 424.722 234.252 384.658 313.317C337.481 406.419 345.001 527.456 467.332 596.54C496.888 613.231 528.405 626.746 560.566 637.598C633.109 662.074 785.852 692.34 990.836 618.001C1282.18 512.34 1476 658.288 1476 658.288V749.506C1476 749.506 1102.37 804.617 781.015 749.506C459.656 694.395 0 749.506 0 749.506V419.981V34.9667C0 34.9667 370.125 131.886 781.015 34.9667C1191.9 -61.9521 1476 73.3542 1476 73.3542Z" fill="#7451EB"/>
</svg>
