<svg width="450" height="692" viewBox="0 0 450 692" fill="none" xmlns="http://www.w3.org/2000/svg">
<rect width="450" height="692" fill="#E5E5E5"/>
<path d="M0 692V128.95C0 53.7241 59.7344 -7.85485 134.38 1.47276C165.884 5.40952 200.399 11.3666 235 20.3428C298.377 36.7842 355.696 28.0324 395.182 16.4068C420.37 8.99092 450 27.2438 450 53.5009V692H0Z" fill="#7451EB"/>
<path d="M450 692H0V674.849C0 660.812 8.95529 648.602 22.8057 646.323C54.668 641.08 121.433 635.677 232.517 651.408C333.889 665.764 392.703 662.519 423.042 657.858C435.949 655.875 450 666.173 450 679.23V692Z" fill="white"/>
<path d="M69.0068 345.356C70.5654 91.6612 333.549 93.5049 421.629 101.244C438.159 102.697 450 116.747 450 133.34V582.716C450 591.211 443.879 598.337 435.414 599.051C365.413 604.959 67.3544 614.336 69.0068 345.356Z" fill="white"/>
</svg>
