<svg width="450" height="775" viewBox="0 0 450 775" fill="none" xmlns="http://www.w3.org/2000/svg">
<rect width="450" height="775" fill="#E5E5E5"/>
<path d="M0 775V0H450V775H0Z" fill="#7451EB"/>
<path d="M450 775H0V733.663C0 727.34 3.76035 721.687 9.84073 719.953C33.8396 713.109 103.101 699.907 232.517 723.265C352.8 744.975 413.165 735.103 437.14 728.106C443.04 726.384 450 730.92 450 737.066V775Z" fill="white"/>
<path d="M69.0068 368.264C70.5723 53.5436 335.891 57.2397 422.793 66.8999C438.798 68.679 450 82.4543 450 98.5574V650.164C450 667.236 437.82 681.673 420.789 682.856C331.361 689.062 67.4517 680.916 69.0068 368.264Z" fill="white"/>
</svg>
