<svg width="450" height="775" viewBox="0 0 450 775" fill="none" xmlns="http://www.w3.org/2000/svg">
<rect width="450" height="775" fill="#E5E5E5"/>
<path d="M0 775V0H450V775H0Z" fill="#7451EB"/>
<path d="M447.11 222.986V529.426C443.918 510.544 438.904 491.245 431.086 474.66C423.472 458.508 413.098 444.712 398.943 436.476C384.715 428.198 366.973 425.716 345.048 431.648C296.134 444.882 270.794 464.242 251.99 478.608C248.214 481.493 244.701 484.176 241.314 486.569C231.256 493.673 222.53 498.056 211.268 497.99C199.876 497.924 185.509 493.302 164.267 481.37C142.561 469.176 118.749 462.868 96.7258 461.867C74.7355 460.868 54.3315 465.155 39.5639 474.383C24.6998 483.673 15.5422 498.009 16.5193 516.665C17.4862 535.126 28.3558 557.352 52.3194 582.741C62.2926 593.308 64.1331 604.848 61.3194 616.442C58.4647 628.205 50.7899 640.063 41.5969 650.753C32.4348 661.407 21.9367 670.706 13.7035 677.354C9.59234 680.674 6.05845 683.323 3.55622 685.14C3.53742 685.153 3.51868 685.167 3.5 685.18V454.252L3.5 259.218C4.61776 261.944 5.92628 265.013 7.4239 268.339C13.2345 281.241 21.9204 298.059 33.3965 313.601C44.8544 329.119 59.2257 343.545 76.4657 351.415C93.8244 359.34 113.924 360.535 136.455 349.842C158.444 339.406 174.144 329.752 186.547 321.644C189.52 319.7 192.287 317.857 194.894 316.121C203.24 310.563 209.945 306.098 216.529 302.907C224.992 298.806 233.119 296.895 243.955 297.844C254.915 298.804 268.718 302.696 288.482 310.421C329.59 326.49 370.696 302.235 400.907 275.026C416.115 261.33 428.805 246.674 437.686 235.456C441.598 230.515 444.776 226.234 447.11 222.986Z" fill="white" stroke="white" stroke-width="5"/>
</svg>
