<svg width="450" height="775" viewBox="0 0 450 775" fill="none" xmlns="http://www.w3.org/2000/svg">
<rect width="450" height="775" fill="#E5E5E5"/>
<path d="M0 775V0H450V775H0Z" fill="#7451EB"/>
<path d="M447.109 222.972V529.491C443.91 510.587 438.883 491.262 431.038 474.658C423.407 458.505 413.01 444.71 398.825 436.475C384.567 428.198 366.789 425.717 344.817 431.648C295.796 444.881 270.401 464.24 251.555 478.606C247.77 481.491 244.25 484.175 240.855 486.567C230.774 493.671 222.027 498.056 210.736 497.99C199.316 497.924 184.915 493.301 163.626 481.369C141.872 469.175 118.009 462.868 95.9385 461.867C73.901 460.868 53.4537 465.154 38.6549 474.382C23.7596 483.67 14.58 498.006 15.5595 516.666C16.5285 535.128 27.4232 557.355 51.4397 582.743C61.4353 593.31 63.2789 604.849 60.4594 616.441C57.5986 628.203 49.907 640.061 40.6933 650.751C31.5107 661.406 20.9891 670.704 12.7374 677.352C8.61702 680.672 5.07519 683.322 2.56733 685.138C2.5448 685.154 2.52236 685.171 2.5 685.187V454.252L2.5 259.192C3.62278 261.925 4.93805 265.004 6.44414 268.341C12.2677 281.243 20.973 298.061 32.4747 313.603C43.9583 329.121 58.3611 343.546 75.638 351.416C93.0328 359.34 113.174 360.534 135.753 349.843C157.79 339.407 173.524 329.753 185.955 321.645C188.935 319.701 191.708 317.859 194.32 316.123C202.685 310.565 209.405 306.099 216.005 302.908C224.487 298.806 232.635 296.895 243.497 297.844C254.483 298.805 268.318 302.697 288.126 310.422C329.319 326.488 370.513 302.237 400.792 275.028C416.034 261.332 428.752 246.676 437.653 235.458C441.579 230.509 444.768 226.222 447.109 222.972Z" fill="white" stroke="white" stroke-width="5"/>
</svg>
